<svg id="8287e15a-249f-4783-aae7-36cccae708ff" data-name="Layer 1" xmlns="http://www.w3.org/2000/svg" width="327.33" height="293.17" viewBox="0 0 327.33 293.17">
  <title>icon-maintenance</title>
  <g id="073ab0a0-3728-4014-95a7-f8c4ecc7d983" data-name="&lt;Group&gt;">
    <path id="6fd6c1c8-e7f1-4de1-ad23-962679936706" data-name="&lt;Path&gt;" d="M162.1,189.5c-.54.14-1.07.31-1.61.43a61.49,61.49,0,1,1,46.43-45.7c9.11,9,18.87,18.86,28.46,28.72l16.59.79,4.36-12.54-13.54-9.76a96.57,96.57,0,0,0,2.27-18.11l15.59-6.08L259.5,114l-16.26-3.36a96.57,96.57,0,0,0-5.34-17.52l11.68-11.86-6.44-11.64-16.33,3.6a98.62,98.62,0,0,0-11.95-13.77l5.83-15.68-10.61-8-13.43,10a95.6,95.6,0,0,0-16.54-7.67L179,21.38l-12.95-2.94-8.17,14.5a98.38,98.38,0,0,0-10.5-.58c-2.62,0-5.18.18-7.76.38L131.86,18l-13.06,2.6-1.52,16.58a99.08,99.08,0,0,0-16.81,7.21L87.4,34.09l-10.85,7.7L82,57.64A98,98,0,0,0,69.63,71L53.39,67,46.63,78.43,58,90.63A96.51,96.51,0,0,0,52.25,108L35.8,110.88l-1.5,13.23,15.33,6.47a98.28,98.28,0,0,0,1.82,18.21l-13.79,9.37,4,12.66,16.7-.34a98,98,0,0,0,9.05,15.85l-8.78,14.21,8.86,9.92,15.13-7.15a99.21,99.21,0,0,0,14.71,10.75l-2.22,16.58,12.16,5.43,10.8-12.6A99.93,99.93,0,0,0,136,227.24l4.74,16h13.3l4.74-16c3.21-.37,6.39-.88,9.51-1.55,1.95-.43,3.85-1,5.75-1.52l10.5,13,12.29-5.11-1-9.38C184.34,211.62,172.69,200.12,162.1,189.5Z" fill="#7ac241"/>
    <path id="2442d743-6a99-45e5-a4e9-6d5453cf20a9" data-name="&lt;Path&gt;" d="M260.54,210.39a32,32,0,0,0-11.82,2.31l-63.47-63.32a42.89,42.89,0,0,0,4.87-20,43.33,43.33,0,0,0-42.39-43.16l17.07,17L155.59,138l-34.73,9.32-17.07-17A43.22,43.22,0,0,0,167,167.66L230.5,231a32,32,0,0,0-2.27,11.82A32.24,32.24,0,0,0,268,274.32l-17.21-17.18,5.07-19.1,19.07-5.12,17.22,17.18a32.27,32.27,0,0,0-31.61-39.71Z" fill="#7ac241"/>
  </g>
</svg>
